<svg xmlns="http://www.w3.org/2000/svg" viewBox="0 0 349.63 79.78"><defs><style>.cls-1{fill:#a2a1a6;}.cls-2{fill:#fed400;}</style></defs><title>Logo</title><g id="Layer_2" data-name="Layer 2"><g id="Camada_1" data-name="Camada 1"><path class="cls-1" d="M0,27.29H15.89v7c4.08-6.18,10-7,13.79-7A18.35,18.35,0,0,1,39,29.55a14.57,14.57,0,0,1,6,6.84,18.91,18.91,0,0,1,16.77-9c6,0,10.81,1.77,13.79,4.63,4.75,4.52,5.08,11.15,5.08,14.68V79.78H64.67V52.84c0-2.54,0-7-2.1-9.6a7.3,7.3,0,0,0-5.74-2.65,7.64,7.64,0,0,0-6.18,3c-2.1,2.65-2.43,6.51-2.43,9.71v26.5H32.33V52.18c0-3.31-.11-7.17-2.54-9.6a7.13,7.13,0,0,0-5.3-2,7.75,7.75,0,0,0-5.52,2c-3,2.87-3.09,8.39-3.09,10V79.78H0Z"/><path class="cls-1" d="M123,44.23c-3.85-3.19-8.81-3.74-11.34-3.74a12.62,12.62,0,0,0-9,3.52A12.93,12.93,0,0,0,99,53.25a12.7,12.7,0,0,0,3.3,8.8,13,13,0,0,0,9.57,4A15.46,15.46,0,0,0,122,62.16v14.3a24.52,24.52,0,0,1-12.54,3c-8.25,0-14.52-3-19-7.37a25.58,25.58,0,0,1-7.7-18.7A26.36,26.36,0,0,1,90.87,34c5.5-5.17,12-6.93,18.7-6.93A28,28,0,0,1,122,29.82Z"/><path class="cls-1" d="M138.06,79.43l20-26.7a25.78,25.78,0,0,1-7.61,1.14c-8.18,0-14.88-2.84-19.09-7s-6.59-10.11-6.59-18.29c0-11.25,5.11-17.38,7.38-19.77C139.53,1,149.87.24,155.9.24c11.93,0,18.75,4,22.72,7.61,3.75,3.52,7.73,9.77,7.73,19.2a39.24,39.24,0,0,1-3.41,15.45,83.56,83.56,0,0,1-8.86,14.09L156.8,79.43ZM146.69,18a12.5,12.5,0,0,0-4,9.54c0,4.77,1.7,7.84,3.86,9.77A14.7,14.7,0,0,0,165,37.17c1.82-1.7,3.86-4.77,3.86-10A12,12,0,0,0,165,18a13,13,0,0,0-9.2-3.41A13.22,13.22,0,0,0,146.69,18Z"/><path class="cls-2" d="M240.3,79.5H224.41V72.15c-2.43,3.53-6.84,7.61-15.56,7.61-7.28,0-12.58-2.32-16.88-6.73a27.58,27.58,0,0,1-7.72-19.75c0-8.17,3-14.9,7.72-19.42a24.79,24.79,0,0,1,17.1-6.62c5.41,0,11.37,1.77,15.34,7.17V0H240.3ZM204.43,44.23a12.68,12.68,0,0,0-3.86,9.38,12.47,12.47,0,0,0,3.86,9,12.19,12.19,0,0,0,8.28,3.42,13.55,13.55,0,0,0,9-3.64,12,12,0,0,0,3.64-8.83,12.69,12.69,0,0,0-3.53-9,11.67,11.67,0,0,0-8.94-3.64A11.54,11.54,0,0,0,204.43,44.23Z"/><path class="cls-2" d="M295.69,56.26H258.94a13.45,13.45,0,0,0,3,8.39c2.43,2.65,5.74,3.09,8.17,3.09a13.05,13.05,0,0,0,6.4-1.43,9.63,9.63,0,0,0,3.42-4.08l15,1.54a22,22,0,0,1-9.49,12.36c-4.75,2.87-10,3.64-15.56,3.64-7.39,0-13.9-1.32-19.64-7.06a26.44,26.44,0,0,1-7.39-19,28,28,0,0,1,7.5-19.42c6-6,13.35-7.06,18.87-7.06s13.46,1,19.53,7.39c5.85,6.18,7,13.9,7,20ZM281,46.77a12.51,12.51,0,0,0-3.2-5.74,11.66,11.66,0,0,0-15.56.44,11.05,11.05,0,0,0-2.76,5.3Z"/><path class="cls-2" d="M307.26,26.75l14.47,28.52L332.2,26.75h17.44L326.7,79.5h-9.93L289.82,26.75Z"/></g></g></svg>